<svg id="Layer_1" data-name="Layer 1" xmlns="http://www.w3.org/2000/svg" viewBox="0 0 96 24"><defs><style>.cls-1{fill:#555;}.cls-2{fill:#7f7f7f;}.cls-3{fill:#d5d5d5;}.cls-4{fill:#fff;}</style></defs><title>btn_close_x</title><path class="cls-1" d="M84.69,12L95.86,0.84a0.5,0.5,0,0,0,0-.7,0.5,0.5,0,0,0-.7,0L84,11.32,72.84,0.14a0.5,0.5,0,0,0-.7,0,0.5,0.5,0,0,0,0,.7L83.33,12,72.17,23.16a0.49,0.49,0,0,0,.7.7L84,12.68,95.18,23.86a0.48,0.48,0,1,0,.68-0.68Z"/><path class="cls-2" d="M60.69,12L71.86,0.84a0.5,0.5,0,0,0,0-.7,0.5,0.5,0,0,0-.7,0L60,11.32,48.84,0.14a0.5,0.5,0,0,0-.7,0,0.5,0.5,0,0,0,0,.7L59.33,12,48.17,23.16a0.49,0.49,0,1,0,.7.7L60,12.68,71.18,23.86a0.48,0.48,0,1,0,.68-0.68Z"/><path class="cls-3" d="M36.69,12L47.86,0.84a0.5,0.5,0,0,0,0-.7,0.5,0.5,0,0,0-.7,0L36,11.32,24.84,0.14a0.5,0.5,0,0,0-.7,0,0.5,0.5,0,0,0,0,.7L35.33,12,24.17,23.16a0.49,0.49,0,0,0,.7.7L36,12.68,47.18,23.86a0.48,0.48,0,1,0,.68-0.68Z"/><path class="cls-4" d="M12.69,12L23.86,0.84a0.5,0.5,0,0,0,0-.7,0.5,0.5,0,0,0-.7,0L12,11.32,0.84,0.14a0.5,0.5,0,0,0-.7,0,0.5,0.5,0,0,0,0,.7L11.33,12,0.17,23.16a0.5,0.5,0,0,0,0,.7,0.5,0.5,0,0,0,.7,0L12,12.68,23.18,23.86a0.48,0.48,0,0,0,.68-0.68Z"/></svg>